<?xml version="1.0" encoding="UTF-8" standalone="no"?>
<!-- Created with Inkscape (http://www.inkscape.org/) -->

<svg
   xmlns:dc="http://purl.org/dc/elements/1.1/"
   xmlns:cc="http://creativecommons.org/ns#"
   xmlns:rdf="http://www.w3.org/1999/02/22-rdf-syntax-ns#"
   xmlns:svg="http://www.w3.org/2000/svg"
   xmlns="http://www.w3.org/2000/svg"
   xmlns:sodipodi="http://sodipodi.sourceforge.net/DTD/sodipodi-0.dtd"
   xmlns:inkscape="http://www.inkscape.org/namespaces/inkscape"
   version="1.1"
   id="svg2"
   xml:space="preserve"
   width="672"
   height="672"
   viewBox="0 0 672 672"
   sodipodi:docname="Fig1A_RNAseq_support.svg"
   inkscape:version="0.92.2 5c3e80d, 2017-08-06"><metadata
     id="metadata8"><rdf:RDF><cc:Work
         rdf:about=""><dc:format>image/svg+xml</dc:format><dc:type
           rdf:resource="http://purl.org/dc/dcmitype/StillImage" /><dc:title></dc:title></cc:Work></rdf:RDF></metadata><defs
     id="defs6"><clipPath
       clipPathUnits="userSpaceOnUse"
       id="clipPath44"><path
         d="M 0,48.63 H 406.73 V 455.36 H 0 Z"
         id="path42"
         inkscape:connector-curvature="0" /></clipPath></defs><sodipodi:namedview
     pagecolor="#ffffff"
     bordercolor="#666666"
     borderopacity="1"
     objecttolerance="10"
     gridtolerance="10"
     guidetolerance="10"
     inkscape:pageopacity="0"
     inkscape:pageshadow="2"
     inkscape:window-width="1312"
     inkscape:window-height="754"
     id="namedview4"
     showgrid="false"
     inkscape:zoom="0.49665833"
     inkscape:cx="325.93272"
     inkscape:cy="336"
     inkscape:window-x="0"
     inkscape:window-y="0"
     inkscape:window-maximized="0"
     inkscape:current-layer="g10" /><g
     id="g10"
     inkscape:groupmode="layer"
     inkscape:label="Fig1A_RNAseq_support"
     transform="matrix(1.3333333,0,0,-1.3333333,0,672)"><g
       id="g12" /><g
       id="g14" /><g
       id="g16" /><g
       id="g18" /><g
       id="g20" /><g
       id="g22" /><g
       id="g24" /><g
       id="g26" /><g
       id="g28" /><g
       id="g30" /><g
       id="g32" /><g
       id="g34" /><g
       id="g36" /><g
       id="g54" /><g
       id="g56" /><g
       id="g58" /><g
       id="g60" /><g
       id="g62" /><g
       id="g64" /><g
       id="g66" /><g
       id="g68" /><g
       id="g70" /><g
       id="g72" /><g
       id="g74" /><g
       id="g76" /><g
       id="g78" /><g
       id="g80" /><g
       id="g82" /><g
       id="g84" /><g
       id="g86" /><g
       id="g88" /><g
       id="g90" /><g
       id="g92" /><g
       id="g94" /><g
       id="g96" /><g
       id="g98" /><g
       id="g100" /><g
       id="g102" /><g
       id="g104" /><g
       id="g106" /><g
       id="g108" /><g
       id="g110" /><g
       id="g112" /><g
       id="g114" /><g
       id="g116" /><g
       id="g118" /><g
       id="g120" /><g
       id="g122" /><g
       id="g124" /><g
       id="g126" /><g
       id="g128" /><g
       id="g130" /><g
       id="g132" /><g
       id="g134" /><g
       id="g136" /><g
       id="g138" /><g
       id="g140" /><g
       id="g142" /><g
       id="g144" /><g
       id="g146" /><g
       id="g148" /><g
       id="g154" /><g
       id="g156" /><g
       id="g158" /><g
       id="g164" /><g
       id="g166" /><g
       id="g168" /><g
       id="g174" /><g
       id="g176" /><g
       id="g178" /><g
       id="g184" /><g
       id="g186" /><g
       id="g188" /><g
       id="g200" /><g
       id="g202" /><g
       id="g204" /><g
       id="g206" /><g
       id="g218" /><g
       id="g220" /><g
       id="g222" /><g
       id="g224" /><g
       id="g236" /><g
       id="g238" /><g
       id="g240" /><g
       id="g242" /><g
       id="g254" /><g
       id="g256" /><g
       id="g258" /><g
       id="g260" /><g
       id="g262" /><g
       id="g264" /><g
       id="g266" /><g
       id="g268" /><g
       id="g270" /><g
       id="g272" /><g
       id="g274" /><g
       id="g276" /><g
       id="g278" /><g
       id="g4909"
       transform="translate(58.893607,-9.0302775)"><path
         inkscape:connector-curvature="0"
         id="path46"
         style="fill:#fb9a99;fill-opacity:1;fill-rule:nonzero;stroke:#000000;stroke-width:1.07000005;stroke-linecap:round;stroke-linejoin:round;stroke-miterlimit:10;stroke-dasharray:none;stroke-opacity:1"
         d="m 145.44741,436.63497 3.12425,0.92305 3.1328,0.86536 3.14909,0.81403 3.16537,0.7627 3.18027,0.69731 3.19022,0.65369 3.20513,0.58829 3.21368,0.53061 3.21589,0.48067 3.2308,0.41525 3.23301,0.36531 3.24157,0.30763 3.2424,0.2436 3.24461,0.19364 3.25317,0.13599 3.26172,0.0783 3.24849,0.0156 3.25704,-0.042 3.25291,-0.0843 3.25236,-0.16236 3.24822,-0.20457 3.24906,-0.26861 3.23719,-0.31718 3.23029,-0.38754 3.22616,-0.42978 3.21926,-0.50015 3.2074,-0.54872 3.20189,-0.60502 3.18228,-0.65994 3.16906,-0.72258 3.17125,-0.77254 3.14395,-0.8338 3.13207,-0.88238 3.11884,-0.94503 3.09924,-0.99995 3.08103,-1.04078 3.06006,-1.10978 3.0482,-1.15836 3.01454,-1.21189 3.00266,-1.26047 2.97536,-1.32175 2.94941,-1.36892 2.93755,-1.4175 2.89615,-1.4774 2.87794,-1.51823 2.84428,-1.57177 2.82469,-1.62671 2.79875,-1.67388 2.75873,-1.7197 2.7328,-1.7669 2.69913,-1.82044 2.66685,-1.8599 2.63317,-1.91344 2.60724,-1.96064 2.56088,-1.99873 2.52722,-2.05226 2.49493,-2.09174 2.4549,-2.13754 2.42263,-2.17702 2.38259,-2.22285 2.33627,-2.26088 2.29624,-2.30673 2.26395,-2.3462 2.21759,-2.38428 2.17123,-2.42237 2.1326,-2.4541 2.09258,-2.49993 -142.85464,-117.35913 z" /><path
         inkscape:connector-curvature="0"
         id="path48"
         style="fill:#cccccc;fill-opacity:1;fill-rule:nonzero;stroke:#000000;stroke-width:1.07000005;stroke-linecap:round;stroke-linejoin:round;stroke-miterlimit:10;stroke-dasharray:none;stroke-opacity:1"
         d="m 62.440992,383.92127 2.242392,2.43755 2.295965,2.40386 2.33407,2.35748 2.372139,2.31114 2.417936,2.27113 2.463767,2.23112 2.494118,2.17841 2.539935,2.13839 2.578026,2.09204 2.602026,2.04705 2.654201,1.99931 2.684551,1.9466 2.716299,1.90798 2.752998,1.84752 2.784745,1.8089 2.81511,1.75618 2.84546,1.70349 2.88217,1.64304 2.90618,1.59806 2.93019,1.55308 2.96691,1.49264 2.98319,1.44132 3.01355,1.38859 3.03618,1.32955 3.06655,1.27684 3.08283,1.2255 3.10546,1.16646 3.12809,1.1074 3.14438,1.05605 3.16702,0.99701 54.03845,-176.80759 z" /><path
         inkscape:connector-curvature="0"
         id="path50"
         style="fill:#e31a1c;fill-opacity:1;fill-rule:nonzero;stroke:#000000;stroke-width:1.07000005;stroke-linecap:round;stroke-linejoin:round;stroke-miterlimit:10;stroke-dasharray:none;stroke-opacity:1"
         d="m 316.77201,108.27808 -2.48805,-2.044 -2.53387,-2.004 -2.56561,-1.96536 -2.59597,-1.91266 -2.63406,-1.866288 -2.65807,-1.821307 -2.69616,-1.774945 -2.72789,-1.736315 -2.75688,-1.669528 -2.78227,-1.638626 -2.81263,-1.585906 -2.84299,-1.533209 -2.85927,-1.481867 -2.89736,-1.435513 -2.91366,-1.384185 -2.93628,-1.325125 -2.96801,-1.286488 -2.98293,-1.221087 -3.00694,-1.1761 -3.02322,-1.124774 -3.03951,-1.073439 -3.06987,-1.020735 -3.07844,-0.96306 -3.10106,-0.903999 -3.11099,-0.860392 -3.12591,-0.79499 -3.13585,-0.751387 -3.15847,-0.69233 -3.15931,-0.628302 -3.17697,-0.591054 -3.18416,-0.519293 -3.19409,-0.47569 -3.19492,-0.411672 -3.21121,-0.360335 -3.21204,-0.296314 -3.22198,-0.252707 -3.22281,-0.18868 -3.22363,-0.124659 -3.21951,-0.08243 -3.23441,-0.01703 -3.22254,0.03154 -3.23111,0.08923 -3.21787,0.151872 -3.22641,0.209544 -3.21456,0.258122 -3.20904,0.314422 -3.20987,0.378441 -3.19802,0.427019 -3.19248,0.483311 -3.18063,0.53189 -3.17373,0.602259 -3.16188,0.650837 -3.14227,0.70575 -3.14449,0.755707 -3.11717,0.81697 -3.11166,0.873275 -3.09206,0.928189 -3.07386,0.969039 -3.0606,1.03168 -3.04103,1.086607 -3.02142,1.141521 -2.99549,1.188713 -2.98362,1.237291 -2.95631,1.298553 -2.93037,1.345752 -2.91078,1.400666 -2.87849,1.440137 -2.86525,1.502785 -2.83296,1.542243 -2.7993,1.595791 -2.78743,1.644363 -2.739685,1.696518 -2.721481,1.737368 -2.687814,1.790909 -2.655527,1.830374 -2.621869,1.883923 -2.589573,1.92338 -2.555908,1.97692 -2.517278,2.00867 -2.483606,2.0622 -2.451325,2.10167 -2.411311,2.14748 -2.379024,2.18695 -2.332663,2.22503 -2.300379,2.26451 -2.25401,2.30258 -2.214002,2.34841 -2.173989,2.39422 -2.129003,2.41823 -2.096714,2.45769 -2.05036,2.49579 -1.997648,2.52614 -1.957634,2.57196 -1.912655,2.59597 -1.866293,2.63406 -1.827656,2.6658 -1.774944,2.69615 -1.722241,2.72652 -1.683603,2.75826 -1.624543,2.78088 -1.585914,2.81263 -1.533201,2.84299 -1.481875,2.85928 -1.435513,2.89736 -1.376452,2.91999 -1.339199,2.93766 -1.272413,2.96664 -1.228813,2.97658 -1.176108,3.00695 -1.11704,3.02956 -1.073447,3.03952 -1.020735,3.06987 -0.963053,3.07842 -0.903998,3.10107 -0.860399,3.111 -0.794988,3.1259 -0.743662,3.1422 -0.693706,3.1444 -0.634651,3.16703 -0.576976,3.1756 -0.525642,3.19188 -0.46935,3.18636 -0.418016,3.20265 -0.353984,3.20348 -0.302657,3.21977 -0.238641,3.2206 -0.196408,3.21646 -0.124651,3.22364 -0.07471,3.22585 -0.02475,3.22806 0.03927,3.2289 0.09556,3.22338 0.145522,3.22559 0.20182,3.22007 0.265853,3.2209 0.314417,3.20904 0.378443,3.20988 0.427015,3.19801 0.48967,3.18476 0.539611,3.18697 0.594534,3.16739 0.650832,3.16187 0.71348,3.14863 0.762055,3.13676 0.810621,3.1249 0.873276,3.11165 0.920465,3.08571 0.983105,3.07248 1.031685,3.06061 1.086599,3.04102 1.141528,3.02143 1.188716,2.99548 1.243637,2.97591 1.29221,2.96402 1.345746,2.93038 1.400669,2.91077 1.447863,2.88485 1.495051,2.85889 1.548602,2.82524 1.597168,2.81337 1.642978,2.77335 1.704249,2.74605 1.737367,2.72148 1.783186,2.68146 1.844449,2.65415 1.877568,2.62959 1.929729,2.58185 1.962853,2.55729 2.022734,2.51589 2.055859,2.49134 2.108012,2.44359 2.14748,2.41132 137.044883,-124.09389 z" /><path
         inkscape:connector-curvature="0"
         id="path52"
         style="fill:#7f7f7f;fill-opacity:1;fill-rule:nonzero;stroke:#000000;stroke-width:1.07000005;stroke-linecap:round;stroke-linejoin:round;stroke-miterlimit:10;stroke-dasharray:none;stroke-opacity:1"
         d="m 341.09938,367.51926 2.03352,-2.52255 1.99352,-2.56838 1.94852,-2.59238 1.90216,-2.63047 1.86354,-2.6622 1.8031,-2.69892 1.75812,-2.72292 1.71947,-2.75467 1.66677,-2.78502 1.61406,-2.81539 1.56136,-2.84575 1.51637,-2.86976 1.46366,-2.90012 1.41233,-2.9164 1.36597,-2.9545 1.30829,-2.96305 1.25558,-2.99341 1.2106,-3.01743 1.15292,-3.02597 1.10022,-3.05636 1.04115,-3.07896 0.99121,-3.0812 0.93849,-3.11155 0.88082,-3.12009 0.82176,-3.14274 0.77816,-3.15268 0.71275,-3.16759 0.66915,-3.17752 0.5974,-3.1847 0.54607,-3.20098 0.50246,-3.21093 0.43071,-3.2181 0.38076,-3.22031 0.32309,-3.22887 0.2654,-3.23744 0.20137,-3.23825 0.15778,-3.24822 0.0951,-3.23495 0.0438,-3.25124 -0.0266,-3.24435 -0.0765,-3.24656 -0.13283,-3.24105 -0.18278,-3.24325 -0.25314,-3.23635 -0.30173,-3.22449 -0.3594,-3.23306 -0.41432,-3.21346 -0.47835,-3.2143 -0.52692,-3.20243 -0.58321,-3.19691 -0.63814,-3.17732 -0.69444,-3.17181 -0.75708,-3.15857 -0.812,-3.13896 -0.86058,-3.12712 -0.91687,-3.12158 -0.97042,-3.08793 -1.02672,-3.08242 -1.08163,-3.06281 -1.13655,-3.04324 -1.18375,-3.01728 -1.23867,-2.99771 -1.29358,-2.9781 -1.34851,-2.95852 -1.3957,-2.93258 -1.44924,-2.89891 -1.49009,-2.88071 -1.55136,-2.85338 -1.59854,-2.82744 -1.65209,-2.79379 -1.69928,-2.76784 -1.73875,-2.73555 -1.79229,-2.70189 -1.83948,-2.67595 -1.89302,-2.64229 -1.93249,-2.61 -1.97195,-2.5777 -2.02411,-2.52997 -2.07131,-2.50404 -2.10305,-2.4654 -2.15659,-2.43173 -2.19467,-2.38537 -2.24187,-2.35943 -2.27224,-2.30673 -2.32577,-2.27306 -2.35751,-2.23442 -2.40194,-2.18033 -2.42733,-2.14943 -2.47951,-2.10169 -118.52727,141.88203 z" /><text
         transform="scale(1,-1)"
         id="text4801"
         y="-367.1947"
         x="167.61018"
         style="font-style:normal;font-variant:normal;font-weight:normal;font-stretch:normal;font-size:24px;line-height:1.25;font-family:Helvetica;-inkscape-font-specification:Helvetica;letter-spacing:0px;word-spacing:0px;fill:#000000;fill-opacity:1;stroke:none;stroke-width:0.75"
         xml:space="preserve"><tspan
           style="font-style:normal;font-variant:normal;font-weight:normal;font-stretch:normal;font-size:24px;font-family:Helvetica;-inkscape-font-specification:Helvetica;stroke-width:0.75"
           y="-367.1947"
           x="167.61018"
           id="tspan4799"
           sodipodi:role="line">Validated by</tspan></text>
<text
         transform="scale(1,-1)"
         id="text4805"
         y="-340.00995"
         x="188.94417"
         style="font-style:normal;font-variant:normal;font-weight:normal;font-stretch:normal;font-size:24px;line-height:1.25;font-family:Helvetica;-inkscape-font-specification:Helvetica;letter-spacing:0px;word-spacing:0px;fill:#000000;fill-opacity:1;stroke:none;stroke-width:0.75"
         xml:space="preserve"><tspan
           style="font-style:normal;font-variant:normal;font-weight:normal;font-stretch:normal;font-size:24px;font-family:Helvetica;-inkscape-font-specification:Helvetica;stroke-width:0.75"
           y="-340.00995"
           x="188.94417"
           id="tspan4803"
           sodipodi:role="line">RNA-seq</tspan></text>
<text
         transform="scale(1,-1)"
         id="text4809"
         y="-312.82126"
         x="204.56721"
         style="font-style:normal;font-variant:normal;font-weight:normal;font-stretch:normal;font-size:24px;line-height:1.25;font-family:Helvetica;-inkscape-font-specification:Helvetica;letter-spacing:0px;word-spacing:0px;fill:#000000;fill-opacity:1;stroke:none;stroke-width:0.75"
         xml:space="preserve"><tspan
           style="font-style:normal;font-variant:normal;font-weight:normal;font-stretch:normal;font-size:24px;font-family:Helvetica;-inkscape-font-specification:Helvetica;stroke-width:0.75"
           y="-312.82126"
           x="204.56721"
           id="tspan4807"
           sodipodi:role="line">(607)</tspan></text>
<text
         transform="scale(1,-1)"
         id="text4859"
         y="-342.91208"
         x="116.22665"
         style="font-style:normal;font-weight:normal;font-size:24px;line-height:1.25;font-family:sans-serif;letter-spacing:0px;word-spacing:0px;fill:#000000;fill-opacity:1;stroke:none;stroke-width:0.75"
         xml:space="preserve"><tspan
           style="font-style:normal;font-variant:normal;font-weight:normal;font-stretch:normal;font-size:24px;font-family:Helvetica;-inkscape-font-specification:Helvetica;stroke-width:0.75"
           y="-342.91208"
           x="116.22665"
           id="tspan4857"
           sodipodi:role="line">277</tspan></text>
<text
         transform="scale(1,-1)"
         id="text4863"
         y="-212.8322"
         x="70.923889"
         style="font-style:normal;font-variant:normal;font-weight:normal;font-stretch:normal;font-size:24px;line-height:1.25;font-family:Helvetica;-inkscape-font-specification:Helvetica;letter-spacing:0px;word-spacing:0px;fill:#000000;fill-opacity:1;stroke:none;stroke-width:0.75"
         xml:space="preserve"><tspan
           style="font-style:normal;font-variant:normal;font-weight:normal;font-stretch:normal;font-size:24px;font-family:Helvetica;-inkscape-font-specification:Helvetica;stroke-width:0.75"
           y="-212.8322"
           x="70.923889"
           id="tspan4861"
           sodipodi:role="line">Validated by</tspan></text>
<text
         transform="scale(1,-1)"
         id="text4867"
         y="-187.17496"
         x="86.752502"
         style="font-style:normal;font-variant:normal;font-weight:normal;font-stretch:normal;font-size:24px;line-height:1.25;font-family:Helvetica;-inkscape-font-specification:Helvetica;letter-spacing:0px;word-spacing:0px;fill:#000000;fill-opacity:1;stroke:none;stroke-width:0.75"
         xml:space="preserve"><tspan
           style="font-style:normal;font-variant:normal;font-weight:normal;font-stretch:normal;font-size:24px;font-family:Helvetica;-inkscape-font-specification:Helvetica;stroke-width:0.75"
           y="-187.17496"
           x="86.752502"
           id="tspan4865"
           sodipodi:role="line">RNA-seq</tspan></text>
<text
         transform="scale(1,-1)"
         id="text4871"
         y="-161.37804"
         x="99.857964"
         style="font-style:normal;font-variant:normal;font-weight:normal;font-stretch:normal;font-size:24px;line-height:1.25;font-family:Helvetica;-inkscape-font-specification:Helvetica;letter-spacing:0px;word-spacing:0px;fill:#000000;fill-opacity:1;stroke:none;stroke-width:0.75"
         xml:space="preserve"><tspan
           style="font-style:normal;font-variant:normal;font-weight:normal;font-stretch:normal;font-size:24px;font-family:Helvetica;-inkscape-font-specification:Helvetica;stroke-width:0.75"
           y="-161.37804"
           x="99.857964"
           id="tspan4869"
           sodipodi:role="line">(1545)</tspan></text>
<text
         transform="scale(1,-1)"
         id="text4875"
         y="-212.92303"
         x="262.7561"
         style="font-style:normal;font-variant:normal;font-weight:normal;font-stretch:normal;font-size:24px;line-height:1.25;font-family:Helvetica;-inkscape-font-specification:Helvetica;letter-spacing:0px;word-spacing:0px;fill:#000000;fill-opacity:1;stroke:none;stroke-width:0.75"
         xml:space="preserve"><tspan
           style="font-style:normal;font-variant:normal;font-weight:normal;font-stretch:normal;font-size:24px;font-family:Helvetica;-inkscape-font-specification:Helvetica;stroke-width:0.75"
           y="-212.92303"
           x="262.7561"
           id="tspan4873"
           sodipodi:role="line">804</tspan></text>
<text
         transform="scale(1,-1)"
         id="text4879"
         y="-398.6947"
         x="119.24684"
         style="font-style:normal;font-variant:normal;font-weight:normal;font-stretch:normal;font-size:30px;line-height:1.25;font-family:Helvetica;-inkscape-font-specification:Helvetica;letter-spacing:0px;word-spacing:0px;fill:#ffffff;fill-opacity:1;stroke:none;stroke-width:0.75"
         xml:space="preserve"><tspan
           style="font-style:normal;font-variant:normal;font-weight:normal;font-stretch:normal;font-size:30px;font-family:Helvetica;-inkscape-font-specification:Helvetica;fill:#ffffff;fill-opacity:1;stroke-width:0.75"
           y="-398.6947"
           x="119.24684"
           id="tspan4877"
           sodipodi:role="line">Penultimate</tspan></text>
<text
         transform="scale(1,-1)"
         id="text4883"
         y="-146.47896"
         x="206.88268"
         style="font-style:normal;font-weight:normal;font-size:30px;line-height:1.25;font-family:sans-serif;letter-spacing:0px;word-spacing:0px;fill:#000000;fill-opacity:1;stroke:none;stroke-width:0.75"
         xml:space="preserve"><tspan
           style="font-style:normal;font-variant:normal;font-weight:normal;font-stretch:normal;font-family:Helvetica;-inkscape-font-specification:Helvetica;fill:#ffffff;fill-opacity:1;stroke-width:0.75"
           y="-146.47896"
           x="206.88268"
           id="tspan4881"
           sodipodi:role="line">Ultimate</tspan></text>
</g><rect
       style="fill:none;fill-opacity:1;stroke:none;stroke-width:0.375;stroke-miterlimit:10;stroke-dasharray:none"
       id="rect4949"
       width="410.74518"
       height="421.3158"
       x="49.833054"
       y="-456.04794"
       transform="scale(1,-1)" /></g></svg>