<?xml version="1.0" encoding="UTF-8" standalone="no"?>
<!-- Created with Inkscape (http://www.inkscape.org/) -->

<svg
   xmlns:dc="http://purl.org/dc/elements/1.1/"
   xmlns:cc="http://creativecommons.org/ns#"
   xmlns:rdf="http://www.w3.org/1999/02/22-rdf-syntax-ns#"
   xmlns:svg="http://www.w3.org/2000/svg"
   xmlns="http://www.w3.org/2000/svg"
   xmlns:xlink="http://www.w3.org/1999/xlink"
   xmlns:sodipodi="http://sodipodi.sourceforge.net/DTD/sodipodi-0.dtd"
   xmlns:inkscape="http://www.inkscape.org/namespaces/inkscape"
   version="1.1"
   id="svg2"
   xml:space="preserve"
   width="672"
   height="672"
   viewBox="0 0 672 672"
   sodipodi:docname="Fig4A_Human_RNAseq_support.svg"
   inkscape:version="0.92.2 5c3e80d, 2017-08-06"><metadata
     id="metadata8"><rdf:RDF><cc:Work
         rdf:about=""><dc:format>image/svg+xml</dc:format><dc:type
           rdf:resource="http://purl.org/dc/dcmitype/StillImage" /><dc:title></dc:title></cc:Work></rdf:RDF></metadata><defs
     id="defs6"><clipPath
       clipPathUnits="userSpaceOnUse"
       id="clipPath44"><path
         d="M 0,48.63 H 406.73 V 455.36 H 0 Z"
         id="path42"
         inkscape:connector-curvature="0" /></clipPath><clipPath
       id="clipPath1147"
       clipPathUnits="userSpaceOnUse"><path
         inkscape:connector-curvature="0"
         id="path1145"
         d="M 0,48.64 H 406.73 V 455.37 H 0 Z" /></clipPath></defs><sodipodi:namedview
     pagecolor="#ffffff"
     bordercolor="#666666"
     borderopacity="1"
     objecttolerance="10"
     gridtolerance="10"
     guidetolerance="10"
     inkscape:pageopacity="0"
     inkscape:pageshadow="2"
     inkscape:window-width="1312"
     inkscape:window-height="754"
     id="namedview4"
     showgrid="false"
     inkscape:zoom="0.49665833"
     inkscape:cx="114.51978"
     inkscape:cy="297.25972"
     inkscape:window-x="0"
     inkscape:window-y="0"
     inkscape:window-maximized="0"
     inkscape:current-layer="g10" /><g
     id="g10"
     inkscape:groupmode="layer"
     inkscape:label="Fig1A_RNAseq_support"
     transform="matrix(1.3333333,0,0,-1.3333333,0,672)"><g
       id="g12" /><g
       id="g14" /><g
       id="g16" /><g
       id="g18" /><g
       id="g20" /><g
       id="g22" /><g
       id="g24" /><g
       id="g26" /><g
       id="g28" /><g
       id="g30" /><g
       id="g32" /><g
       id="g34" /><g
       id="g36" /><g
       id="g54" /><g
       id="g56" /><g
       id="g58" /><g
       id="g60" /><g
       id="g62" /><g
       id="g64" /><g
       id="g66" /><g
       id="g68" /><g
       id="g70" /><g
       id="g72" /><g
       id="g74" /><g
       id="g76" /><g
       id="g78" /><g
       id="g80" /><g
       id="g82" /><g
       id="g84" /><g
       id="g86" /><g
       id="g88" /><g
       id="g90" /><g
       id="g92" /><g
       id="g94" /><g
       id="g96" /><g
       id="g98" /><g
       id="g100" /><g
       id="g102" /><g
       id="g104" /><g
       id="g106" /><g
       id="g108" /><g
       id="g110" /><g
       id="g112" /><g
       id="g114" /><g
       id="g116" /><g
       id="g118" /><g
       id="g120" /><g
       id="g122" /><g
       id="g124" /><g
       id="g126" /><g
       id="g128" /><g
       id="g130" /><g
       id="g132" /><g
       id="g134" /><g
       id="g136" /><g
       id="g138" /><g
       id="g140" /><g
       id="g142" /><g
       id="g144" /><g
       id="g146" /><g
       id="g148" /><g
       id="g154" /><g
       id="g156" /><g
       id="g158" /><g
       id="g164" /><g
       id="g166" /><g
       id="g168" /><g
       id="g174" /><g
       id="g176" /><g
       id="g178" /><g
       id="g184" /><g
       id="g186" /><g
       id="g188" /><g
       id="g200" /><g
       id="g202" /><g
       id="g204" /><g
       id="g206" /><g
       id="g218" /><g
       id="g220" /><g
       id="g222" /><g
       id="g224" /><g
       id="g236" /><g
       id="g238" /><g
       id="g240" /><g
       id="g242" /><g
       id="g254" /><g
       id="g256" /><g
       id="g258" /><g
       id="g260" /><g
       id="g262" /><g
       id="g264" /><g
       id="g266" /><g
       id="g268" /><g
       id="g270" /><g
       id="g272" /><g
       id="g274" /><g
       id="g276" /><g
       id="g278" /><g
       id="g1869"
       transform="translate(496.82043,-9.060555)"><path
         inkscape:connector-curvature="0"
         id="path1149"
         style="fill:#fb9a99;fill-opacity:1;fill-rule:nonzero;stroke:#000000;stroke-width:1.07000005;stroke-linecap:round;stroke-linejoin:round;stroke-miterlimit:10;stroke-dasharray:none;stroke-opacity:1"
         d="m -294.13445,436.91415 3.01412,1.19481 3.03599,1.13547 3.06566,1.08236 3.07347,1.02459 3.08909,0.97304 3.10471,0.92151 3.13438,0.86841 3.12814,0.8122 3.15781,0.75908 3.17187,0.6935 3.17344,0.64353 3.18905,0.59198 3.19686,0.5342 3.20468,0.47642 3.21248,0.41864 3.22029,0.36085 3.23592,0.30931 3.22966,0.25309 3.23748,0.19531 3.23747,0.13128 3.23905,0.0813 3.24685,0.0235 3.2406,-0.0327 3.24062,-0.0967 3.24216,-0.14672 3.2359,-0.20343 3.22968,-0.25915 3.22343,-0.31539 3.22344,-0.3794 3.21095,-0.42783 3.2047,-0.48405 3.19845,-0.54027 3.1844,-0.60275 3.17815,-0.65897 3.16566,-0.70738 3.14536,-0.76204 3.13912,-0.81827 3.12506,-0.88073 3.09851,-0.92758 3.09227,-0.98382 3.07197,-1.03847 3.05166,-1.09313 3.03136,-1.14779 3.01888,-1.19621 2.99076,-1.25712 2.96422,-1.30397 2.95172,-1.35238 2.91736,-1.40549 2.89706,-1.46014 2.87051,-1.507 2.83616,-1.5601 2.82367,-1.60851 2.78306,-1.6538 2.76277,-1.70846 2.72215,-1.75377 2.69561,-1.8006 2.66125,-1.85371 2.63627,-1.88651 2.5941,-1.94586 2.5613,-1.98489 2.52851,-2.02394 2.49416,-2.07704 2.45354,-2.12234 2.42075,-2.16137 2.3739,-2.19887 2.339547,-2.25196 2.300509,-2.2832 2.261454,-2.31444 2.219295,-2.37377 2.174004,-2.39721 2.133401,-2.4425 2.094358,-2.47374 2.053754,-2.51902 -144.363862,-115.49758 z" /><path
         inkscape:connector-curvature="0"
         id="path1151"
         style="fill:#cccccc;fill-opacity:1;fill-rule:nonzero;stroke:#000000;stroke-width:1.07000005;stroke-linecap:round;stroke-linejoin:round;stroke-miterlimit:10;stroke-dasharray:none;stroke-opacity:1"
         d="m -368.44823,381.94206 2.12078,2.56755 2.16762,2.54102 2.21916,2.49259 2.25821,2.4598 2.30974,2.41139 2.34723,2.36453 2.38626,2.33174 2.43781,2.28333 2.46905,2.24428 2.51277,2.18963 2.55183,2.15683 2.58774,2.09592 2.62679,2.06313 2.67051,2.00847 2.70019,1.95537 2.73143,1.91633 2.77516,1.86166 2.80483,1.80857 2.82826,1.76328 2.86417,1.70237 2.89542,1.66333 2.93134,1.60243 2.94696,1.55088 2.99068,1.49622 3.00631,1.4447 3.03597,1.39159 3.05785,1.33225 3.07971,1.2729 69.30213,-171.39724 z" /><path
         inkscape:connector-curvature="0"
         id="path1153"
         style="fill:#e31a1c;fill-opacity:1;fill-rule:nonzero;stroke:#000000;stroke-width:1.07000005;stroke-linecap:round;stroke-linejoin:round;stroke-miterlimit:10;stroke-dasharray:none;stroke-opacity:1"
         d="m -107.51919,114.12547 -2.50965,-2.03345 -2.54871,-2.00066 -2.58619,-1.95381 -2.61742,-1.91476 -2.64708,-1.86166 -2.68459,-1.81481 -2.708,-1.76953 -2.74548,-1.722672 -2.77517,-1.669578 -2.8064,-1.63053 -2.82826,-1.571181 -2.85793,-1.518088 -2.88918,-1.479046 -2.90479,-1.427508 -2.94072,-1.3666 -2.95009,-1.322873 -2.97976,-1.269774 -3.00162,-1.210429 -3.02506,-1.16514 -3.04066,-1.113603 -3.06255,-1.054256 -3.07815,-1.00272 -3.10783,-0.949623 -3.1094,-0.899645 -3.12345,-0.834054 -3.14688,-0.788764 -3.15469,-0.73098 -3.16874,-0.665388 -3.17813,-0.621657 -3.18593,-0.563876 -3.20779,-0.504529 -3.20936,-0.454554 -3.20936,-0.390522 -3.22498,-0.338985 -3.21874,-0.282763 -3.24059,-0.223418 -3.23436,-0.167194 -3.23592,-0.11722 -3.23591,-0.05319 -3.24373,0.0046 -3.23124,0.05301 -3.2453,0.118602 -3.22499,0.173269 -3.2328,0.231051 -3.23437,0.281025 -3.22031,0.343493 -3.21407,0.399718 -3.20157,0.44813 -3.20157,0.512162 -3.19533,0.568385 -3.17504,0.623046 -3.16878,0.679269 -3.14848,0.73393 -3.15004,0.783905 -3.12194,0.844815 -3.10945,0.893229 -3.09539,0.955698 -3.08289,1.004112 -3.06261,1.058775 -3.03448,1.119683 -3.02981,1.16185 -3.00168,1.222757 -2.97515,1.269611 -2.95485,1.324273 -2.93454,1.378934 -2.908,1.425786 -2.88144,1.472639 -2.85334,1.533548 -2.83459,1.574154 -2.80024,1.627253 -2.7737,1.674108 -2.73933,1.7272 -2.71279,1.77406 -2.67999,1.81311 -2.64564,1.8662 -2.61908,1.91306 -2.57848,1.95835 -2.54569,1.99739 -2.51133,2.0505 -2.47854,2.08952 -2.43793,2.13484 -2.39732,2.18012 -2.35829,2.21135 -2.32393,2.26445 -2.28488,2.2957 -2.23804,2.33317 -2.19743,2.37847 -2.16463,2.41751 -2.11779,2.45499 -2.06468,2.48467 -2.03189,2.52372 -1.97723,2.56744 -1.94599,2.59243 -1.8851,2.62835 -1.85229,2.6674 -1.80075,2.68301 -1.7461,2.72675 -1.70706,2.75799 -1.66176,2.7814 -1.60086,2.81734 -1.55557,2.84075 -1.51028,2.86419 -1.45718,2.89385 -1.40408,2.92354 -1.35255,2.93915 -1.30725,2.96258 -1.24792,2.98444 -1.1948,3.01413 -1.14328,3.02974 -1.09798,3.05317 -1.04021,3.06098 -0.9871,3.09064 -0.92151,3.10471 -0.87778,3.11409 -0.81844,3.13595 -0.7669,3.15156 -0.70912,3.15937 -0.65133,3.16719 -0.59979,3.1828 -0.54826,3.19843 -0.48422,3.19842 -0.4327,3.21404 -0.38271,3.21562 -0.31088,3.22185 -0.26714,3.23123 -0.20312,3.23123 -0.15313,3.23279 -0.0813,3.23904 -0.0454,3.24217 0.0249,3.23436 0.0827,3.24217 0.13108,3.22968 0.18891,3.23748 0.24511,3.23124 0.31539,3.22343 0.35755,3.21875 0.41377,3.21251 0.47624,3.19845 0.52621,3.20002 0.58869,3.18596 0.64492,3.17972 0.69957,3.15941 0.74798,3.14692 0.80421,3.14068 0.86668,3.12662 0.91353,3.10007 0.96976,3.09383 1.02441,3.07353 1.07907,3.05323 1.13374,3.03292 1.18841,3.01263 1.2368,3.00013 1.28992,2.96577 1.33833,2.95329 1.39924,2.92517 1.44609,2.89863 1.49294,2.87207 1.53979,2.84553 1.6007,2.81742 1.64132,2.79868 1.69285,2.75026 1.74126,2.73778 1.78655,2.69716 1.83341,2.67063 1.8865,2.63626 1.92555,2.60348 1.97866,2.56911 2.01769,2.53631 143.6159,-116.42515 z" /><path
         inkscape:connector-curvature="0"
         id="path1155"
         style="fill:#7f7f7f;fill-opacity:1;fill-rule:nonzero;stroke:#000000;stroke-width:1.07000005;stroke-linecap:round;stroke-linejoin:round;stroke-miterlimit:10;stroke-dasharray:none;stroke-opacity:1"
         d="m -81.04701,372.03311 1.988162,-2.53309 1.947557,-2.57837 1.908516,-2.60962 1.855416,-2.63929 1.816375,-2.67051 1.763275,-2.7002 1.724234,-2.73143 1.663326,-2.76736 1.625845,-2.78453 1.564939,-2.82045 1.533705,-2.84545 1.46655,-2.87355 1.421261,-2.89699 1.37597,-2.92041 1.322873,-2.95009 1.271336,-2.9657 1.211991,-2.98758 1.1667,-3.01099 1.107355,-3.03287 1.063627,-3.04223 1.00272,-3.07816 0.952745,-3.07972 0.901207,-3.09534 0.841862,-3.1172 0.790326,-3.13282 0.732541,-3.14064 0.681004,-3.15625 0.629467,-3.17188 0.557628,-3.17812 0.513899,-3.18748 0.463923,-3.18906 0.398332,-3.20311 0.346793,-3.21874 0.290572,-3.21249 0.232788,-3.22029 0.182811,-3.22187 0.11878,-3.22186 0.061,-3.22967 0.01102,-3.23123 -0.05301,-3.23123 -0.101424,-3.21875 -0.15921,-3.22655 -0.215456,-3.22031 -0.279458,-3.22032 -0.327877,-3.20781 -0.384099,-3.20157 -0.448131,-3.20158 -0.496545,-3.18908 -0.552768,-3.18284 -0.601181,-3.17034 -0.663653,-3.15629 -0.719874,-3.15004 -0.774536,-3.12975 -0.830759,-3.12349 -0.88542,-3.10321 -0.933834,-3.0907 -0.988495,-3.0704 -1.036911,-3.05792 -1.105627,-3.03604 -1.146232,-3.01731 -1.200894,-2.997 -1.261802,-2.9689 -1.302409,-2.95016 -1.357069,-2.92985 -1.411731,-2.90956 -1.450775,-2.87676 -1.511684,-2.84866 -1.560098,-2.83616 -1.60539,-2.79555 -1.660051,-2.77525 -1.705343,-2.73465 -1.745948,-2.71591 -1.799047,-2.68155 -1.852148,-2.6472 -1.891193,-2.6144 -1.930236,-2.5816 -1.983338,-2.54726 -2.03019,-2.52069 -2.067672,-2.47385 -2.112964,-2.43325 -2.159817,-2.4067 -2.191053,-2.36765 -2.236345,-2.32705 -2.281636,-2.28644 -2.312872,-2.24741 -2.358166,-2.2068 -2.3894,-2.16776 -2.44094,-2.11934 -2.46592,-2.08811 -117.89168,142.41005 z" /><text
         transform="scale(1,-1)"
         id="text4801-6"
         y="-370.61865"
         x="-263.14844"
         style="font-style:normal;font-variant:normal;font-weight:normal;font-stretch:normal;font-size:24px;line-height:1.25;font-family:Helvetica;-inkscape-font-specification:Helvetica;letter-spacing:0px;word-spacing:0px;fill:#000000;fill-opacity:1;stroke:none;stroke-width:0.75"
         xml:space="preserve"><tspan
           style="font-style:normal;font-variant:normal;font-weight:normal;font-stretch:normal;font-size:24px;font-family:Helvetica;-inkscape-font-specification:Helvetica;stroke-width:0.75"
           y="-370.61865"
           x="-263.14844"
           id="tspan4799-4"
           sodipodi:role="line">Validated by</tspan></text>
<text
         transform="scale(1,-1)"
         id="text4805-4"
         y="-343.4339"
         x="-241.81445"
         style="font-style:normal;font-variant:normal;font-weight:normal;font-stretch:normal;font-size:24px;line-height:1.25;font-family:Helvetica;-inkscape-font-specification:Helvetica;letter-spacing:0px;word-spacing:0px;fill:#000000;fill-opacity:1;stroke:none;stroke-width:0.75"
         xml:space="preserve"><tspan
           style="font-style:normal;font-variant:normal;font-weight:normal;font-stretch:normal;font-size:24px;font-family:Helvetica;-inkscape-font-specification:Helvetica;stroke-width:0.75"
           y="-343.4339"
           x="-241.81445"
           id="tspan4803-8"
           sodipodi:role="line">RNA-seq</tspan></text>
<text
         transform="scale(1,-1)"
         id="text4809-6"
         y="-316.24524"
         x="-226.19141"
         style="font-style:normal;font-variant:normal;font-weight:normal;font-stretch:normal;font-size:24px;line-height:1.25;font-family:Helvetica;-inkscape-font-specification:Helvetica;letter-spacing:0px;word-spacing:0px;fill:#000000;fill-opacity:1;stroke:none;stroke-width:0.75"
         xml:space="preserve"><tspan
           style="font-style:normal;font-variant:normal;font-weight:normal;font-stretch:normal;font-size:24px;font-family:Helvetica;-inkscape-font-specification:Helvetica;stroke-width:0.75"
           y="-316.24524"
           x="-226.19141"
           id="tspan4807-1"
           sodipodi:role="line">(879)</tspan></text>
<text
         transform="scale(1,-1)"
         id="text4859-4"
         y="-346.33606"
         x="-320.53195"
         style="font-style:normal;font-weight:normal;font-size:24px;line-height:1.25;font-family:sans-serif;letter-spacing:0px;word-spacing:0px;fill:#000000;fill-opacity:1;stroke:none;stroke-width:0.75"
         xml:space="preserve"><tspan
           style="font-style:normal;font-variant:normal;font-weight:normal;font-stretch:normal;font-size:24px;font-family:Helvetica;-inkscape-font-specification:Helvetica;stroke-width:0.75"
           y="-346.33606"
           x="-320.53195"
           id="tspan4857-0"
           sodipodi:role="line">347</tspan></text>
<text
         transform="scale(1,-1)"
         id="text4863-8"
         y="-216.25616"
         x="-358.33475"
         style="font-style:normal;font-variant:normal;font-weight:normal;font-stretch:normal;font-size:24px;line-height:1.25;font-family:Helvetica;-inkscape-font-specification:Helvetica;letter-spacing:0px;word-spacing:0px;fill:#000000;fill-opacity:1;stroke:none;stroke-width:0.75"
         xml:space="preserve"><tspan
           style="font-style:normal;font-variant:normal;font-weight:normal;font-stretch:normal;font-size:24px;font-family:Helvetica;-inkscape-font-specification:Helvetica;stroke-width:0.75"
           y="-216.25616"
           x="-358.33475"
           id="tspan4861-1"
           sodipodi:role="line">Validated by</tspan></text>
<text
         transform="scale(1,-1)"
         id="text4871-0"
         y="-164.802"
         x="-326.77029"
         style="font-style:normal;font-variant:normal;font-weight:normal;font-stretch:normal;font-size:24px;line-height:1.25;font-family:Helvetica;-inkscape-font-specification:Helvetica;letter-spacing:0px;word-spacing:0px;fill:#000000;fill-opacity:1;stroke:none;stroke-width:0.75"
         xml:space="preserve"><tspan
           style="font-style:normal;font-variant:normal;font-weight:normal;font-stretch:normal;font-size:24px;font-family:Helvetica;-inkscape-font-specification:Helvetica;stroke-width:0.75"
           y="-164.802"
           x="-326.77029"
           id="tspan4869-3"
           sodipodi:role="line">(2021)</tspan></text>
<text
         transform="scale(1,-1)"
         id="text4875-1"
         y="-216.34702"
         x="-166.5025"
         style="font-style:normal;font-variant:normal;font-weight:normal;font-stretch:normal;font-size:24px;line-height:1.25;font-family:Helvetica;-inkscape-font-specification:Helvetica;letter-spacing:0px;word-spacing:0px;fill:#000000;fill-opacity:1;stroke:none;stroke-width:0.75"
         xml:space="preserve"><tspan
           style="font-style:normal;font-variant:normal;font-weight:normal;font-stretch:normal;font-size:24px;font-family:Helvetica;-inkscape-font-specification:Helvetica;stroke-width:0.75"
           y="-216.34702"
           x="-166.5025"
           id="tspan4873-1"
           sodipodi:role="line">1067</tspan></text>
<text
         transform="scale(1,-1)"
         id="text4879-5"
         y="-400.61865"
         x="-319.01181"
         style="font-style:normal;font-variant:normal;font-weight:normal;font-stretch:normal;font-size:30px;line-height:1.25;font-family:Helvetica;-inkscape-font-specification:Helvetica;letter-spacing:0px;word-spacing:0px;fill:#ffffff;fill-opacity:1;stroke:none;stroke-width:0.75"
         xml:space="preserve"><tspan
           style="font-style:normal;font-variant:normal;font-weight:normal;font-stretch:normal;font-size:30px;font-family:Helvetica;-inkscape-font-specification:Helvetica;fill:#ffffff;fill-opacity:1;stroke-width:0.75"
           y="-400.61865"
           x="-319.01181"
           id="tspan4877-0"
           sodipodi:role="line">Penultimate</tspan></text>
<text
         transform="scale(1,-1)"
         id="text4883-8"
         y="-149.90292"
         x="-222.37595"
         style="font-style:normal;font-weight:normal;font-size:30px;line-height:1.25;font-family:sans-serif;letter-spacing:0px;word-spacing:0px;fill:#000000;fill-opacity:1;stroke:none;stroke-width:0.75"
         xml:space="preserve"><tspan
           style="font-style:normal;font-variant:normal;font-weight:normal;font-stretch:normal;font-family:Helvetica;-inkscape-font-specification:Helvetica;fill:#ffffff;fill-opacity:1;stroke-width:0.75"
           y="-149.90292"
           x="-222.37595"
           id="tspan4881-4"
           sodipodi:role="line">Ultimate</tspan></text>
<text
         transform="scale(1,-1)"
         id="text4867-9"
         y="-190.60524"
         x="-341.06717"
         style="font-style:normal;font-variant:normal;font-weight:normal;font-stretch:normal;font-size:24px;line-height:1.25;font-family:Helvetica;-inkscape-font-specification:Helvetica;letter-spacing:0px;word-spacing:0px;fill:#000000;fill-opacity:1;stroke:none;stroke-width:0.75"
         xml:space="preserve"><tspan
           style="font-style:normal;font-variant:normal;font-weight:normal;font-stretch:normal;font-size:24px;font-family:Helvetica;-inkscape-font-specification:Helvetica;stroke-width:0.75"
           y="-190.60524"
           x="-341.06717"
           id="tspan4865-3"
           sodipodi:role="line">RNA-seq</tspan></text>
<use
         id="use1803"
         xlink:href="#path1149"
         y="0"
         x="0"
         width="100%"
         height="100%" /><use
         id="use1805"
         xlink:href="#path1151"
         y="0"
         x="0"
         width="100%"
         height="100%" /><use
         id="use1807"
         xlink:href="#path1153"
         y="0"
         x="0"
         width="100%"
         height="100%" /><use
         id="use1809"
         xlink:href="#path1155"
         y="0"
         x="0"
         width="100%"
         height="100%" /><use
         id="use1811"
         xlink:href="#text4801-6"
         y="0"
         x="0"
         width="100%"
         height="100%" /><use
         id="use1813"
         xlink:href="#text4805-4"
         y="0"
         x="0"
         width="100%"
         height="100%" /><use
         id="use1815"
         xlink:href="#text4809-6"
         y="0"
         x="0"
         width="100%"
         height="100%" /><use
         id="use1817"
         xlink:href="#text4859-4"
         y="0"
         x="0"
         width="100%"
         height="100%" /><use
         id="use1819"
         xlink:href="#text4863-8"
         y="0"
         x="0"
         width="100%"
         height="100%" /><use
         id="use1821"
         xlink:href="#text4871-0"
         y="0"
         x="0"
         width="100%"
         height="100%" /><use
         id="use1823"
         xlink:href="#text4875-1"
         y="0"
         x="0"
         width="100%"
         height="100%" /><use
         id="use1825"
         xlink:href="#text4879-5"
         y="0"
         x="0"
         width="100%"
         height="100%" /><use
         id="use1827"
         xlink:href="#text4883-8"
         y="0"
         x="0"
         width="100%"
         height="100%" /><use
         id="use1829"
         xlink:href="#text4867-9"
         y="0"
         x="0"
         width="100%"
         height="100%" /></g></g></svg>